<?xml version="1.0" encoding="utf-8"?>
<!-- Generator: Adobe Illustrator 23.0.1, SVG Export Plug-In . SVG Version: 6.00 Build 0)  -->
<svg version="1.1" id="Calque_1" xmlns="http://www.w3.org/2000/svg" xmlns:xlink="http://www.w3.org/1999/xlink" x="0px" y="0px"
	 viewBox="0 0 97 85" style="enable-background:new 0 0 97 85;" xml:space="preserve">
<style type="text/css">
	.st0{filter:url(#Adobe_OpacityMaskFilter);}
	.st1{mask:url(#XMLID_2_);}
	.st2{fill:#FFFFFF;}
	.st3{filter:url(#Adobe_OpacityMaskFilter_1_);}
	.st4{mask:url(#XMLID_3_);}
	.st5{fill:#34A6B4;}
</style>
<g id="XMLID_698_">
	<g id="XMLID_1093_">
		<defs>
			<filter id="Adobe_OpacityMaskFilter" filterUnits="userSpaceOnUse" x="21.24" y="15.55" width="45.7" height="45.7">
				<feFlood  style="flood-color:white;flood-opacity:1" result="back"/>
				<feBlend  in="SourceGraphic" in2="back" mode="normal"/>
			</filter>
		</defs>
		<mask maskUnits="userSpaceOnUse" x="21.24" y="15.55" width="45.7" height="45.7" id="XMLID_2_">
			<g id="XMLID_36_" class="st0">
				<path id="XMLID_37_" d="M72.66,1.95L43.69,37.17l-5.51-6.61c-0.92-1.1-2.27-1.74-3.71-1.74c-1.27,0-2.47,0.49-3.37,1.38
					c-1.76,1.72-1.94,4.48-0.42,6.42c2.35,2.99,6.58,8.33,8.48,10.46c1.8,2.02,3.53,2.45,4.66,2.45c1.62,0,3.11-0.84,4.2-2.36
					c8.06-11.22,27.56-42.68,27.75-43L72.66,1.95L72.66,1.95z"/>
			</g>
		</mask>
		<g id="XMLID_1299_" class="st1">
			<path id="XMLID_1305_" class="st2" d="M44.12,61.25c-3.1,0-6.07-0.62-8.92-1.85c-1.35-0.56-2.63-1.24-3.84-2.05
				c-1.21-0.8-2.35-1.75-3.39-2.83c-1.08-1.05-2.03-2.18-2.83-3.39c-0.8-1.21-1.49-2.5-2.05-3.84c-1.23-2.84-1.85-5.81-1.85-8.92
				c0-3.07,0.62-6.04,1.85-8.92c0.56-1.35,1.24-2.63,2.05-3.84c0.8-1.21,1.75-2.35,2.83-3.39c2.13-2.13,4.54-3.76,7.23-4.88
				c2.77-1.2,5.74-1.79,8.92-1.79c3.18,0,6.15,0.6,8.92,1.79c2.69,1.12,5.1,2.75,7.23,4.88s3.76,4.54,4.88,7.23
				c1.2,2.77,1.79,5.74,1.79,8.92c0,3.18-0.6,6.15-1.79,8.92c-1.12,2.69-2.75,5.1-4.88,7.23c-1.05,1.09-2.18,2.03-3.39,2.83
				c-1.22,0.8-2.5,1.49-3.84,2.05C50.16,60.64,47.19,61.25,44.12,61.25z M44.13,20.73c-2.42,0-4.71,0.47-6.88,1.39
				c-2.16,0.93-4.04,2.19-5.64,3.79c-1.6,1.6-2.87,3.47-3.79,5.61c-0.93,2.14-1.39,4.42-1.39,6.84c0,2.42,0.46,4.71,1.39,6.88
				c0.93,2.16,2.19,4.04,3.79,5.64c1.6,1.6,3.48,2.87,5.64,3.79c2.16,0.93,4.45,1.4,6.88,1.4c2.42,0,4.7-0.46,6.84-1.4
				c2.14-0.93,4.01-2.19,5.61-3.79c1.6-1.6,2.86-3.48,3.8-5.64c0.93-2.16,1.39-4.45,1.39-6.88c0-2.42-0.46-4.7-1.39-6.84
				c-0.93-2.14-2.2-4.01-3.8-5.61c-1.6-1.6-3.47-2.86-5.61-3.79C48.83,21.19,46.55,20.73,44.13,20.73z"/>
			<path id="XMLID_1302_" class="st2" d="M44.12,15.55c3.18,0,6.15,0.6,8.92,1.79c2.69,1.12,5.1,2.75,7.23,4.88
				c2.13,2.13,3.76,4.54,4.88,7.23c1.2,2.77,1.79,5.74,1.79,8.92c0,3.18-0.6,6.15-1.79,8.92c-1.12,2.69-2.75,5.1-4.88,7.23
				c-1.05,1.09-2.18,2.03-3.39,2.83c-1.22,0.8-2.5,1.49-3.84,2.05c-2.88,1.23-5.85,1.85-8.92,1.85c-3.1,0-6.07-0.62-8.92-1.85
				c-1.35-0.56-2.63-1.24-3.84-2.05c-1.21-0.8-2.35-1.75-3.39-2.83c-1.08-1.05-2.03-2.18-2.83-3.39c-0.8-1.21-1.49-2.5-2.05-3.84
				c-1.23-2.84-1.85-5.81-1.85-8.92c0-3.07,0.62-6.04,1.85-8.92c0.56-1.35,1.24-2.63,2.05-3.84c0.8-1.21,1.75-2.35,2.83-3.39
				c2.13-2.13,4.54-3.76,7.23-4.88C37.97,16.15,40.94,15.55,44.12,15.55 M44.13,56.08c2.42,0,4.7-0.46,6.84-1.4
				c2.14-0.93,4.01-2.19,5.61-3.79c1.6-1.6,2.86-3.48,3.8-5.64c0.93-2.16,1.39-4.45,1.39-6.88c0-2.42-0.46-4.7-1.39-6.84
				c-0.93-2.14-2.2-4.01-3.8-5.61c-1.6-1.6-3.47-2.86-5.61-3.79c-2.14-0.93-4.42-1.39-6.84-1.39c-2.42,0-4.71,0.47-6.88,1.39
				c-2.16,0.93-4.04,2.19-5.64,3.79c-1.6,1.6-2.87,3.47-3.79,5.61c-0.93,2.14-1.39,4.42-1.39,6.84c0,2.42,0.46,4.71,1.39,6.88
				c0.93,2.16,2.19,4.04,3.79,5.64c1.6,1.6,3.48,2.87,5.64,3.79C39.41,55.61,41.7,56.08,44.13,56.08"/>
		</g>
		<defs>
			<filter id="Adobe_OpacityMaskFilter_1_" filterUnits="userSpaceOnUse" x="8.72" y="56.08" width="22.59" height="26.75">
				<feFlood  style="flood-color:white;flood-opacity:1" result="back"/>
				<feBlend  in="SourceGraphic" in2="back" mode="normal"/>
			</filter>
		</defs>
		<mask maskUnits="userSpaceOnUse" x="8.72" y="56.08" width="22.59" height="26.75" id="XMLID_3_">
			<g id="XMLID_29_" class="st3">
				<path id="XMLID_30_" d="M18.67,71.69h2.49v0.8h-3.31v-5.59h3.25v0.79h-2.44v0.88v0.46v0.56h2.2v0.77h-2.2V71.69z"/>
			</g>
		</mask>
		<g id="XMLID_1292_" class="st4">
			<path class="st2" d="M23.53,60.28c0.58-0.61,1.12-1.12,1.66-1.45c-0.6-0.57-0.69-1.51-0.17-2.18l-0.02,0.03
				c0.55-0.71,1.55-0.8,2.26-0.25l3.43,2.67c0.71,0.55,0.86,1.54,0.31,2.25l0.01-0.02c-0.52,0.67-1.46,0.8-2.16,0.35
				c-0.19,0.6-0.54,1.25-0.99,1.97c-0.99,1.59-9.6,14.62-11.4,16.93c-1.8,2.31-4.28,2.97-6.33,1.38c-1.63-1.27-2.01-4.16-0.21-6.47
				C11.71,73.18,22.23,61.63,23.53,60.28z"/>
		</g>
		<path id="XMLID_1291_" class="st5" d="M36.71,31.78l6.99,8.39l0,0l30.44-37c0,0-19.57,31.59-27.68,42.89
			c-1.45,2.02-3.68,2.22-5.87-0.24c-1.87-2.1-6.08-7.42-8.4-10.37c-0.92-1.17-0.81-2.83,0.25-3.87l0,0
			C33.65,30.38,35.62,30.48,36.71,31.78z"/>
		<path id="XMLID_1289_" class="st2" d="M30.88,66.91L30.88,66.91l-1.41,2.8l1.41,2.81v0.01h-0.86l-0.98-1.94l-0.97,1.94H27.2v-0.01
			l1.41-2.81l-1.41-2.79v-0.01h0.87l0.96,1.94l0.97-1.94H30.88z"/>
		<path id="XMLID_1207_" class="st2" d="M40.84,68.68c0.01,0.03,0.01,0.06,0.01,0.09c0,0.03,0,0.06,0,0.1v0.01v0.01
			c0,0.04,0,0.07,0,0.1c0,0.03-0.01,0.06-0.01,0.09v0.01l-0.02,0.18c-0.01,0.01-0.01,0.02-0.01,0.03c-0.01,0.03-0.01,0.05-0.02,0.07
			c-0.01,0.02-0.01,0.04-0.02,0.07c-0.07,0.23-0.18,0.44-0.32,0.63c-0.14,0.18-0.31,0.34-0.51,0.47c-0.17,0.1-0.35,0.18-0.56,0.24
			c-0.2,0.06-0.42,0.09-0.65,0.09h-1v1.66h-0.82v-5.62h1.82c0.46,0,0.86,0.11,1.21,0.33c0.2,0.13,0.37,0.28,0.51,0.47
			c0.14,0.18,0.25,0.39,0.32,0.62c0.02,0.06,0.03,0.1,0.04,0.15c0,0.02,0,0.03,0.01,0.03c0.01,0.03,0.01,0.06,0.01,0.09
			c0,0.03,0.01,0.06,0.01,0.08V68.68z M38.84,70.14c0.17,0,0.32-0.04,0.46-0.11c0.14-0.07,0.26-0.17,0.37-0.28
			c0.1-0.12,0.19-0.25,0.24-0.4S40,69.04,40,68.88s-0.03-0.32-0.09-0.47s-0.14-0.28-0.24-0.4c-0.1-0.12-0.23-0.21-0.37-0.28
			c-0.14-0.07-0.29-0.11-0.46-0.11h-1.09v2.52H38.84z"/>
		<path id="XMLID_1202_" class="st2" d="M47.71,71.69h2.49v0.8h-3.3v-5.59h3.25v0.79h-2.44v0.88v0.46v0.56h2.2v0.77h-2.2V71.69z"/>
		<path id="XMLID_1199_" class="st2" d="M60.09,69.44c-0.07,0.23-0.18,0.44-0.32,0.62c-0.14,0.18-0.31,0.34-0.52,0.47
			c-0.01,0.01-0.02,0.02-0.04,0.02c-0.02,0.01-0.03,0.01-0.04,0.02l0.99,1.94h-0.87l-0.86-1.69c-0.06,0.01-0.12,0.02-0.18,0.02
			c-0.06,0.01-0.13,0.01-0.2,0.01h-1v1.66h-0.82v-5.62h1.82c0.23,0,0.45,0.03,0.65,0.09c0.2,0.06,0.39,0.14,0.55,0.24
			c0.41,0.26,0.69,0.62,0.83,1.09c0.01,0.03,0.01,0.05,0.02,0.07c0,0.02,0.01,0.04,0.02,0.07v0.04c0.01,0.03,0.02,0.05,0.02,0.08
			c0,0.03,0.01,0.06,0.01,0.09v0.01c0,0.03,0.01,0.06,0.01,0.09s0,0.06,0,0.1v0.01v0.02c0,0.03,0,0.06,0,0.09s0,0.06-0.01,0.09v0.02
			c0,0.03-0.01,0.06-0.01,0.09c0,0.03-0.01,0.06-0.02,0.09v0.03C60.11,69.35,60.1,69.4,60.09,69.44z M58.16,70.14
			c0.17,0,0.32-0.04,0.46-0.11c0.14-0.07,0.26-0.17,0.36-0.28s0.18-0.25,0.24-0.4s0.09-0.31,0.09-0.47c0-0.16-0.03-0.31-0.09-0.47
			c-0.06-0.15-0.14-0.29-0.24-0.4s-0.22-0.21-0.36-0.28c-0.14-0.07-0.29-0.11-0.46-0.11h-1.09v2.52H58.16z"/>
		<path id="XMLID_1094_" class="st2" d="M66.21,66.9h3.58v0.79H68.4v4.81h-0.81v-4.81h-1.38V66.9z"/>
	</g>
	<path id="XMLID_952_" class="st2" d="M93.3,19.07h-2.17c-0.61,0-0.12,0.96-0.12,1.6v3.45c0-0.08-0.61-0.16-0.69-0.24
		c-2.87-2.87-6.6-4.33-10.65-4.33c-4.06,0-7.69,1.46-10.57,4.33c-2.85,2.87-4.35,6.39-4.35,10.45c0,4.04,1.42,7.55,4.27,10.42
		c2.87,2.87,6.38,4.33,10.44,4.33c4.04,0,7.99-1.46,10.86-4.33C90.4,44.67,91,44.59,91,44.51v4.59c0,2.41-1.17,4.6-2.61,6.53
		c-1.42,1.95-3.53,3.25-5.81,3.86c-2.24,0.61-4.58,0.49-6.74-0.37c-2.12-0.83-3.86-2.23-5.05-4.13c-0.2-0.34-0.48-0.47-0.66-0.51
		c-0.18-0.05-0.48-0.06-0.82,0.14l-1.89,1.1c-0.54,0.32-0.7,0.89-0.37,1.45c1.35,2.15,3.15,3.87,5.38,5.11
		c2.22,1.23,4.64,1.86,7.17,1.86c4.04,0,7.87-1.46,10.74-4.33C93.22,56.94,95,53.43,95,49.39V20.67C95,20.03,93.93,19.07,93.3,19.07
		z M89.9,34.33c0,2.87-1.03,5.36-3.07,7.4c-2.04,2.04-4.53,3.07-7.4,3.07c-2.87,0-5.37-1.03-7.43-3.07
		c-2.04-2.04-3.07-4.53-3.07-7.4c0-2.89,1.03-5.39,3.07-7.43c2.06-2.04,4.56-3.07,7.43-3.07c2.87,0,5.36,1.03,7.4,3.07
		C88.87,28.94,89.9,31.44,89.9,34.33z"/>
	<g id="XMLID_706_">
		<g id="XMLID_708_">
			<path id="XMLID_714_" class="st2" d="M25.01,53.08H3.81c-0.6,0-1-0.4-1-1V20.15c0-0.58,0.4-0.97,1-0.97H5.7c0.6,0,1,0.39,1,0.97
				V49.2h18.31c0.6,0,1,0.4,1,1v1.89C26,52.68,25.6,53.08,25.01,53.08z M3.81,51.88l0.01,0.6L3.81,51.88L3.81,51.88z"/>
		</g>
	</g>
</g>
</svg>
